<svg version="1.2" xmlns="http://www.w3.org/2000/svg" viewBox="0 0 256 256" width="256" height="256">
	<title>New Project</title>
	<style>
		
	</style>
	<g id="Layer 1">
		<path id="Text layer 2" class="s0" aria-label="Cine
VERSE"  d="m78.4 74.5v5.7q-2.7-2.5-5.8-3.8-3-1.2-6.4-1.2-6.8 0-10.4 4.1-3.6 4.2-3.6 12 0 7.8 3.6 11.9 3.6 4.2 10.4 4.2 3.4 0 6.4-1.3 3.1-1.2 5.8-3.7v5.6q-2.8 1.9-5.9 2.8-3.2 1-6.7 1-8.9 0-14.1-5.5-5.2-5.5-5.2-15 0-9.5 5.2-15 5.2-5.5 14.1-5.5 3.6 0 6.7 0.9 3.2 1 5.9 2.8zm8.1 36.5v-29.6h4.8v29.6zm0-35v-6.2h4.9v6.2zm39.7 17.1v17.9h-4.9v-17.7q0-4.2-1.6-6.3-1.7-2.1-4.9-2.1-4 0-6.3 2.5-2.2 2.5-2.2 6.8v16.8h-4.9v-29.6h4.9v4.6q1.7-2.7 4.1-4 2.3-1.4 5.4-1.4 5.1 0 7.8 3.2 2.6 3.2 2.6 9.3zm35.1 1.9v2.3h-22.4q0.3 5.1 3 7.7 2.7 2.6 7.6 2.6 2.8 0 5.4-0.6 2.6-0.7 5.2-2.1v4.6q-2.6 1.1-5.4 1.7-2.7 0.6-5.5 0.6-7.1 0-11.3-4.2-4.1-4.1-4.1-11.1 0-7.3 3.9-11.6 3.9-4.3 10.6-4.3 6 0 9.5 3.9 3.5 3.8 3.5 10.5zm-22.3-1.4l17.4-0.1q-0.1-4-2.3-6.3-2.1-2.4-5.7-2.4-4.1 0-6.6 2.3-2.4 2.3-2.8 6.5zm-73.9 82.4h-6.1l-15-39.5h5.5l12.6 33.3 12.5-33.3h5.6zm20.8 0v-39.5h25v4.5h-19.7v11.7h18.9v4.5h-18.9v14.3h20.2v4.5zm52.9-18.5q1.8 0.5 3.4 2.5 1.6 1.9 3.3 5.2l5.4 10.8h-5.8l-5-10.1q-2-4-3.8-5.3-1.9-1.3-5-1.3h-5.9v16.7h-5.3v-39.5h12.1q6.7 0 10.1 2.8 3.3 2.8 3.3 8.6 0 3.7-1.7 6.1-1.8 2.5-5.1 3.5zm-6.6-16.6h-6.8v14h6.8q3.8 0 5.8-1.8 2-1.8 2-5.2 0-3.5-2-5.3-2-1.7-5.8-1.7zm49.2-3.1v5.2q-3-1.5-5.7-2.2-2.7-0.7-5.2-0.7-4.4 0-6.8 1.7-2.3 1.7-2.3 4.8 0 2.6 1.5 4 1.6 1.3 6 2.1l3.3 0.7q5.9 1.1 8.8 4 2.8 2.9 2.8 7.7 0 5.7-3.8 8.7-3.9 3-11.3 3-2.8 0-6-0.7-3.1-0.6-6.5-1.9v-5.5q3.2 1.9 6.3 2.8 3.2 0.9 6.2 0.9 4.6 0 7.1-1.8 2.4-1.8 2.4-5.1 0-2.9-1.8-4.6-1.7-1.6-5.8-2.4l-3.3-0.7q-5.9-1.2-8.6-3.7-2.7-2.5-2.7-7.1 0-5.2 3.7-8.2 3.7-3 10.2-3 2.8 0 5.6 0.5 2.9 0.5 5.9 1.5zm10.8 38.2v-39.5h24.9v4.5h-19.6v11.7h18.8v4.5h-18.8v14.3h20.1v4.5z"/>
	</g>
</svg>
